<?xml version="1.0" encoding="UTF-8"?>
<!DOCTYPE svg PUBLIC "-//W3C//DTD SVG 1.1//EN" "http://www.w3.org/Graphics/SVG/1.1/DTD/svg11.dtd">
<svg xmlns="http://www.w3.org/2000/svg" xml:space="preserve" version="1.1" style="shape-rendering:geometricPrecision; text-rendering:geometricPrecision; image-rendering:optimizeQuality; fill-rule:evenodd; clip-rule:evenodd"
viewBox="446 3106 10314 587"  xmlns:xlink="http://www.w3.org/1999/xlink"
 xmlns:xodm="http://www.corel.com/coreldraw/odm/2003">
 <defs>
  <style type="text/css">
   <![CDATA[
    .fil0 {fill:#336699}
   ]]>
  </style>
 </defs>
 <g id="Layer_x0020_1">
  <metadata id="CorelCorpID_0Corel-Layer"/>
  <g id="_2491018964864">
   <g>
    <path class="fil0" d="M5595.17 3343.05l54.28 1.97 1.3 110.52 54.75 1.31 1.27 112.18 53.13 1.36 0.29 112.62 217.33 -0.09 0 -566.57 -108.44 2.07c-0.56,91.52 -4.46,383.47 2.23,451.52l-56.23 -1.57 -2.32 -111.35 -53 -1.51 0.85 -112.26 -55.3 -0 -2.41 -113.52 -50.26 0.31c-5.96,-24.25 -5.48,-85.18 -1.75,-110.79 -13.69,-3.39 -147.65,-7.81 -165.19,-0.45l1.05 564.38 108.39 -0.27 0.02 -339.88z"/>
    <path class="fil0" d="M2754.46 3569.11l52.91 2.51 1.95 110.93 162.63 0.71 2.99 -113.39 51.78 0.78 0.63 112.51 164.15 -2.45c-3.25,-23.65 -4.57,-87.8 1.72,-110.43l51.09 -1.48 0.02 -452.46 -108.61 2.07 2.41 451.51 -56.95 -1.5 -1.33 -111.41 -52.91 -1.3 -0.87 -112.6 -54.04 1.53 -0.08 111.29 -54.35 2.33 2.82 111.58 -58.45 -0.24 -0.51 -452.79 -108.08 -0.38 1.08 452.65z"/>
    <path class="fil0" d="M5103.52 3229.76l217.83 -0.06 0 339.94 -215.11 0.05 -2.72 -339.93zm-106.3 2.69c-5.44,17.43 -5.26,316.65 -0,337.15l51.46 2.15 2.72 108.56c16.89,5.29 302.13,5.17 325.45,0.36 -2.77,-25.97 -4.57,-86.52 2.07,-110.98l52.69 -0.21 -1.54 -339 -51.15 -1.79c-6.64,-23.45 -4.83,-84 -2.07,-109.97 -23.26,-4.8 -308.78,-4.9 -327.51,0.35l-2.7 110.03 -49.41 3.35z"/>
    <path class="fil0" d="M2370.5 3229.76l220.72 -0.04 -1.66 4.76 0.1 335.16 -216.59 0.06 -2.58 -339.94zm-54.95 -2.25l-51.55 3.14c-5.97,21.13 -5.92,317.24 0.06,337.29l49.38 2.1 2.75 110.28c18.91,5.32 300.12,4.97 328.57,1.19l-0.51 -110.8 52.62 -0.86 1.56 -338.1 -52.97 -2.42 -1.15 -111.45 -325.96 -1.29 -2.8 110.92z"/>
    <path class="fil0" d="M1003.83 3230.57l222.04 -0.98c-5.79,26.43 -5.79,313.79 0,340.95l-220.59 -1 -1.45 -338.97zm-54.46 -3.13l-52.08 3.11c-5.43,21.2 -5.43,317.09 0.05,336.45l50.94 3.28 1.17 110.96 326.53 1.66 2.04 -111.77 54.43 -2 -0.53 -337.96 -51.81 -1.9 -2.86 -110.82 -325.56 -1.87 -2.33 110.86z"/>
    <path class="fil0" d="M6855.21 3341.71c-5.78,-22.35 -5.93,-87.54 -0,-111.8l160.81 -0.16 0 113.42 -160.81 -1.47zm218.36 113.56c-6.32,-22.33 -6.23,-89.07 0,-112.06l52.64 -0.31 -1.48 -112.42 -51.16 -1.79c-6.64,-23.45 -4.83,-84 -2.06,-109.97 -25.72,-5.31 -304.55,-5.04 -327.92,0.79l1.98 563 106.81 0.75 1.62 -226.82 162.02 -0.09 0 226.45 110.22 -0.02 -1.52 -225.71 -51.16 -1.79z"/>
    <path class="fil0" d="M7291.44 3229.83l162.96 -0.11 2.13 113.44 -167.12 -0.91 2.03 -112.41zm-1.3 451.88c-3.22,-36.18 -4.89,-195.51 1.7,-225.35l165.1 -0.92c-6.42,30.09 -4.96,192.11 -1.75,227.74l107.8 -1.47 0.86 -451.48 -54.79 -1.79 -1.67 -111.81 -272.67 1.54 -0.55 111.2 -53.78 2.33 1.03 451.49 108.73 -1.48z"/>
    <path class="fil0" d="M3630.25 3343.15c-7.57,-25.39 -7.56,-87.21 -0.09,-113.5l161.95 0.27 1.74 113.17 -163.6 0.07zm219.59 112.04c-7.44,-21.98 -7.55,-88.93 -0.02,-111.35l50.6 -2.54 -1.68 -111.26 -48.89 -1.43c-9.56,-28.23 -2.15,-78.14 -3.32,-111.92l-328.4 -0.22 0 566.43 108.47 0.04 2.45 -226.78 163.07 -0.44 -0.2 227.18 108.61 0.04 -1.79 -226.31 -48.89 -1.43z"/>
    <path class="fil0" d="M6302.23 3227.67l-48.34 2.54c-5.53,18.39 -5.57,320.29 0.03,336.98l48.37 3.38c10.93,28.63 -3.27,78.8 5.49,109.33 20.24,7.56 281.24,3.04 325.87,3.03l0.05 -112.68 55.84 -1.46 -1.45 -222.3c-18.61,-6.63 -138.09,-5.54 -162.84,-1.48l-0.98 111.67 54.17 0.18 0.77 113.11 -219.34 -0.28 0 -339.93 273.79 -0.07 -0.19 -110.36c-19.63,-5.7 -302.64,-6.04 -325.68,-0.88 -8.39,31.31 5.31,81.94 -5.56,109.22z"/>
    <path class="fil0" d="M8167.51 3341.71c-5.83,-22.58 -5.87,-87.1 -0.09,-111.87l269.48 -0.08 0 -113.24c-42.24,-0.01 -370.09,-3.81 -382.36,2.3l0 564.02 382.36 0.09 0 -113.18 -269.39 -1.45c-5.83,-22.57 -5.83,-88.04 0,-111.78l160.26 -1.4 0.89 -111.82 -161.15 -1.59z"/>
    <path class="fil0" d="M4067.35 3229.84l270.02 -2.27 1.32 -110.92c-43.65,-0.02 -368.26,-3.8 -382.44,2.17l0 566.46c14.71,-6.15 337.17,-4.29 381.13,-4.54l1.31 -110.85 -273.26 -0.85 -0.37 -112.57 163.76 -2.35 1.28 -110.69 -165.19 -0.37 2.43 -113.21z"/>
    <path class="fil0" d="M8931.27 3569.04l53.58 1.33 -0.37 112.47 327.13 0.4 2.86 -113.14 51.76 -1.67 0.84 -451.88 -109.66 1.9 -0.02 451.15 -215.02 2.4c-6.44,-27.11 -7.31,-417.92 -2.1,-452.54 -21.45,-5.66 -86.03,-5.43 -111.03,-1.15l2.02 450.75z"/>
    <polygon class="fil0" points="569.42,3229.85 839.53,3227.56 840.8,3116.57 456.67,3118.64 458.44,3682.52 567.05,3681.7 569.44,3456.49 730.94,3454.1 732.12,3343.43 567.4,3342.24 "/>
    <path class="fil0" d="M8603.77 3229.78l271.56 -1.02 1 -112.16c-43.8,-0.02 -369.41,-3.77 -383.66,2.22l1.05 564.37 107.84 -1.48 -0.07 -225.28 163.76 -2.33 1.27 -110.72 -165.19 -0.34 2.43 -113.26z"/>
    <path class="fil0" d="M7730.08 3571.98c-7.22,-30.36 -8.09,-316.9 -0,-342.03l270.46 -2.43 1.26 -108.2c-42.15,-10.59 -268.51,-2.85 -329.59,-2.85l-0.83 112.86 -53.63 2.63 1.7 336.87 52.68 1.62 0.06 112.48 328.36 -2.25 1.26 -108.2c-20.96,-5.27 -249.11,-5.38 -271.72,-0.5z"/>
    <path class="fil0" d="M10298.36 3228.06l49.38 2.1 2.73 110.29 54.01 3.03 0.91 110.6 51.33 3.17c13.28,38.58 -7.19,177.33 4.99,222.8 17.51,6.09 88.61,4.59 107.69,0.62 -3.42,-32.07 -4.93,-198.56 2.07,-223.26l51.13 -0.86 2.04 -112.01 53.01 -2 1.27 -111.73 52.26 -0.84 1.52 -111.52 -106.98 -1.61 -1.8 112.3 -53.44 1.28 -0.35 112.68 -106.53 -0.09c-10.82,-29.36 -0.09,-79.15 -4.19,-110.39l-51.86 -3.51c-9.05,-30.23 2.27,-79.82 -3.98,-109.85 -18.72,-5.92 -84.54,-4.5 -105.26,-1.06 -5.32,19.1 -5.63,90.8 0.05,109.85z"/>
    <path class="fil0" d="M1386.57 3681.54l382.85 -0.82 1.3 -108.24c-27.56,-6.93 -220.57,-6.88 -273.3,-0.37l-0.52 -452.67c-20.74,-5.47 -86.25,-5.72 -110.24,-0.77l-0.09 562.88z"/>
    <polygon class="fil0" points="1823.46,3682.93 2205.82,3682.93 2205.82,3569.74 1933.8,3568.82 1932.89,3116.74 1823.63,3118.39 1823.46,3149.51 "/>
    <path class="fil0" d="M4392.78 3681.9c90.93,4.2 280.97,1.03 382.67,1.75l-1.21 -113.78 -272.47 -0.54 -0.86 -451.83 -108.05 0.67 -0.07 563.74z"/>
    <path class="fil0" d="M9859.13 3681.9c107.68,4.97 262.15,0.22 382.67,1.75l-1.16 -112.88 -272.53 -1.94 -0.86 -451.33 -108.05 0.67 -0.07 563.74z"/>
    <polygon class="fil0" points="9420.88,3681.54 9803.74,3680.72 9805.09,3570.87 9531.54,3569.78 9531.21,3116.74 9420.98,3118.67 "/>
    <polygon class="fil0" points="4830.43,3682.89 4939,3682.93 4939,3116.51 4830.43,3116.46 "/>
   </g>
  </g>
 </g>
</svg>